HIERARCHY
ROOT SpineBase
{
  OFFSET 0.000000 0.000000 0.000000
  CHANNELS 6 Xposition Yposition Zposition Zrotation Xrotation Yrotation
  JOINT SpineMid
  {
    OFFSET -0.000000 29.194852 0.000000
    CHANNELS 3 Zrotation Xrotation Yrotation
    JOINT SpineShoulder
    {
      OFFSET -0.019423 21.653515 -0.797814
      CHANNELS 3 Zrotation Xrotation Yrotation
      JOINT Neck
      {
        OFFSET -0.020675 7.159677 -0.582356
        CHANNELS 3 Zrotation Xrotation Yrotation
        JOINT Head
        {
          OFFSET -2.522692 13.352214 -0.930713
          CHANNELS 3 Zrotation Xrotation Yrotation
          End Site
          {
            OFFSET 0 0 0
          }
        }
      }
      JOINT ShoulderLeft
      {
        OFFSET -15.986017 -4.838005 5.173650
        CHANNELS 3 Zrotation Xrotation Yrotation
        JOINT ElbowLeft
        {
          OFFSET -0.891175 -26.293117 2.863789
          CHANNELS 3 Zrotation Xrotation Yrotation
          JOINT WristLeft
          {
            OFFSET 1.772569 -21.040641 -4.536149
            CHANNELS 3 Zrotation Xrotation Yrotation
            JOINT HandLeft
            {
              OFFSET 0.431635 -5.247307 -0.891067
              CHANNELS 3 Zrotation Xrotation Yrotation
              JOINT HandTipLeft
              {
                OFFSET 2.565715 -7.892671 -2.700933
                CHANNELS 3 Zrotation Xrotation Yrotation
                End Site
                {
                  OFFSET 0 0 0
                }
              }
              JOINT ThumbLeft
              {
                OFFSET 2.892624 0.967247 -4.509619
                CHANNELS 3 Zrotation Xrotation Yrotation
                End Site
                {
                  OFFSET 0 0 0
                }
              }
            }
          }
        }
      }
      JOINT ShoulderRight
      {
        OFFSET 12.800640 -3.739500 -9.618021
        CHANNELS 3 Zrotation Xrotation Yrotation
        JOINT ElbowRight
        {
          OFFSET 5.131070 -22.840128 -1.140397
          CHANNELS 3 Zrotation Xrotation Yrotation
          JOINT WristRight
          {
            OFFSET -0.668213 -19.125089 -5.461799
            CHANNELS 3 Zrotation Xrotation Yrotation
            JOINT HandRight
            {
              OFFSET -1.223400 -7.261686 -0.032549
              CHANNELS 3 Zrotation Xrotation Yrotation
              JOINT HandTipRight
              {
                OFFSET 0.243196 -6.718691 0.177819
                CHANNELS 3 Zrotation Xrotation Yrotation
                End Site
                {
                  OFFSET 0 0 0
                }
              }
              JOINT ThumbRight
              {
                OFFSET -3.316562 1.094632 0.476457
                CHANNELS 3 Zrotation Xrotation Yrotation
                End Site
                {
                  OFFSET 0 0 0
                }
              }
            }
          }
        }
      }
    }
  }
  JOINT HipLeft
  {
    OFFSET -5.626149 0.028201 -0.673810
    CHANNELS 3 Zrotation Xrotation Yrotation
    JOINT KneeLeft
    {
      OFFSET 4.958638 -25.989908 6.667758
      CHANNELS 3 Zrotation Xrotation Yrotation
      JOINT AnkleLeft
      {
        OFFSET 4.897953 -34.229030 9.318807
        CHANNELS 3 Zrotation Xrotation Yrotation
        JOINT FootLeft
        {
          OFFSET -3.409022 -2.908915 -10.137447
          CHANNELS 3 Zrotation Xrotation Yrotation
          End Site
          {
            OFFSET 0 0 0
          }
        }
      }
    }
  }
  JOINT HipRight
  {
    OFFSET 5.501025 1.485372 -6.034699
    CHANNELS 3 Zrotation Xrotation Yrotation
    JOINT KneeRight
    {
      OFFSET 8.403618 -25.024871 2.702291
      CHANNELS 3 Zrotation Xrotation Yrotation
      JOINT AnkleRight
      {
        OFFSET 4.476777 -33.910010 9.738123
        CHANNELS 3 Zrotation Xrotation Yrotation
        JOINT FootRight
        {
          OFFSET -3.543283 -2.905175 -10.128453
          CHANNELS 3 Zrotation Xrotation Yrotation
          End Site
          {
            OFFSET 0 0 0
          }
        }
      }
    }
  }
}
MOTION
Frames: 11
Frame Time: 0.033333
20.234983 52.847725 358.487465 2.052726 -47.416116 8.121891 0.507270 0.648327 -7.383669 0.343329 1.283130 -0.142295 13.093270 14.504423 -11.677501 0.000000 0.000000 0.000000 14.525247 46.322046 -10.189565 1.268921 -10.875493 -3.661902 -9.260394 -13.383365 2.518481 30.025227 33.766512 -17.925278 0.000000 0.000000 0.000000 0.000000 0.000000 0.000000 128.360010 34.151207 -95.173203 -144.915868 -42.169456 -81.792605 -3.637134 4.547402 3.048447 7.863329 41.894934 -4.467772 0.000000 0.000000 0.000000 0.000000 0.000000 0.000000 -112.956135 72.322483 105.514003 29.689212 -35.306321 11.611210 5.581316 -31.234115 1.399272 0.000000 0.000000 0.000000 -157.424422 58.743804 177.387340 -31.565966 -62.326125 -52.992270 12.432745 -17.812196 6.839386 0.000000 0.000000 0.000000
17.794178 54.202426 353.524063 1.738165 -45.424926 9.139826 0.634952 0.583393 -8.617141 0.110929 1.325621 -0.058286 15.827221 12.965674 -12.238329 0.000000 0.000000 0.000000 18.599583 51.908277 -13.681690 -1.502840 -23.756645 -2.551039 -3.641790 -19.870981 1.707589 29.400903 42.089283 -23.267549 0.000000 0.000000 0.000000 0.000000 0.000000 0.000000 64.083644 15.511819 -40.232750 -76.036565 -37.243810 6.792955 0.025606 0.942222 0.104354 3.248399 42.132020 -1.790208 0.000000 0.000000 0.000000 0.000000 0.000000 0.000000 -58.930026 77.957862 52.338426 19.588670 -26.860126 5.264523 6.783281 -29.218651 2.518511 0.000000 0.000000 0.000000 -169.725602 73.447510 -172.267448 -27.300472 -52.356618 -42.929564 6.563158 -1.679331 7.020585 0.000000 0.000000 0.000000
15.839252 55.392471 348.632722 1.997906 -43.304430 10.250170 0.273295 0.599098 -9.506813 -0.378312 1.550001 0.092191 20.831851 10.882036 -13.338270 0.000000 0.000000 0.000000 20.779611 54.015444 -15.166539 -3.687770 -35.196657 -2.365561 0.210982 -19.240028 0.806443 28.860228 48.047043 -25.877294 0.000000 0.000000 0.000000 0.000000 0.000000 0.000000 28.334053 -0.835010 -21.013989 -46.545971 -8.513618 29.793666 2.334323 -2.502372 -2.025735 1.497762 41.366779 -0.699137 0.000000 0.000000 0.000000 0.000000 0.000000 0.000000 -13.692020 69.259807 7.051886 11.291051 -16.087082 1.595799 13.287093 -38.939176 3.686785 0.000000 0.000000 0.000000 98.175835 85.264068 -84.193701 -21.883453 -40.205074 -31.363552 1.407321 12.418414 7.207641 0.000000 0.000000 0.000000
14.171192 56.623763 344.733721 2.457346 -41.748216 12.606813 0.147064 0.729264 -11.644550 -0.580300 1.705427 0.154571 25.795565 9.515629 -14.357954 0.000000 0.000000 0.000000 22.893187 55.882289 -16.929111 -6.975737 -47.270740 -3.243493 1.681099 -10.346561 -0.169760 19.524045 46.069143 -17.946996 0.000000 0.000000 0.000000 0.000000 0.000000 0.000000 16.981095 -6.645547 -16.650565 -39.252290 2.421653 32.631936 3.451962 -6.040964 -2.992531 -0.163999 41.295191 0.063601 0.000000 0.000000 0.000000 0.000000 0.000000 0.000000 2.609050 59.364620 -9.059988 2.645054 -9.189457 -1.481826 18.559235 -40.570806 4.157203 0.000000 0.000000 0.000000 36.936353 71.618545 -27.801516 -18.338283 -27.589787 -21.841668 -3.482908 25.722599 6.976391 0.000000 0.000000 0.000000
13.175794 57.688572 342.275100 3.025446 -40.743048 15.881053 0.067231 0.799253 -14.672197 -0.678067 1.762449 0.188659 30.416473 9.661902 -15.449574 0.000000 0.000000 0.000000 18.890700 52.037790 -13.367898 -13.242514 -57.238913 -7.121247 0.866199 -1.309945 -0.275041 1.131878 41.880545 -1.233629 0.000000 0.000000 0.000000 0.000000 0.000000 0.000000 10.935888 -7.063707 -14.370661 -34.989089 5.640232 32.037679 5.742908 -6.076135 -4.010940 -3.500966 37.758412 1.203444 0.000000 0.000000 0.000000 0.000000 0.000000 0.000000 8.079235 54.050709 -15.924559 2.560725 -7.885990 -1.017595 10.126588 -25.843468 2.044921 0.000000 0.000000 0.000000 28.984032 60.193761 -25.023008 -15.519527 -17.867850 -15.244034 -18.843046 47.999017 15.735153 0.000000 0.000000 0.000000
12.986802 58.532478 341.591115 4.133289 -40.477419 17.721749 0.050183 0.901268 -16.065222 -0.743486 1.822877 0.229473 34.136535 11.068178 -16.706289 0.000000 0.000000 0.000000 13.362156 46.302336 -9.088954 -13.187514 -57.611147 -7.809731 1.832357 8.393112 -0.630225 -19.721402 19.963496 12.125803 0.000000 0.000000 0.000000 0.000000 0.000000 0.000000 9.570497 -5.136629 -13.519146 -33.055246 3.969231 29.971866 6.972036 -4.226142 -4.115056 -6.035954 34.778332 1.780874 0.000000 0.000000 0.000000 0.000000 0.000000 0.000000 10.408826 52.515011 -18.853208 -0.584360 -7.348908 -2.196164 6.775733 -11.432443 0.437816 0.000000 0.000000 0.000000 19.818263 56.434299 -21.188273 -8.654285 -12.305850 -9.822508 -35.421514 54.289563 29.370586 0.000000 0.000000 0.000000
13.244171 58.436827 343.371466 4.787159 -40.724826 16.364507 0.550878 0.808734 -14.619044 -0.704165 1.649983 0.255834 35.685895 12.966465 -17.784241 0.000000 0.000000 0.000000 5.316809 37.825553 -3.746328 -5.818813 -48.669560 -5.414407 1.944905 11.773693 -0.682882 -27.669224 6.390046 13.568071 0.000000 0.000000 0.000000 0.000000 0.000000 0.000000 12.291716 0.417885 -13.894427 -33.034166 -2.891904 26.031663 6.820151 -0.365569 -3.459794 -6.801750 31.370527 1.358203 0.000000 0.000000 0.000000 0.000000 0.000000 0.000000 6.461699 56.095068 -14.952812 2.115360 -10.329005 -1.682491 -1.260374 7.836851 0.696120 0.000000 0.000000 0.000000 13.033458 59.521883 -15.197247 -3.848390 -11.565859 -8.157951 -39.888250 55.952018 30.525447 0.000000 0.000000 0.000000
13.108768 58.519032 342.679698 5.717059 -40.017788 18.025024 0.424659 0.855294 -15.897031 -0.489596 1.509816 0.216714 34.576635 14.118220 -17.376730 0.000000 0.000000 0.000000 -2.614451 23.695411 0.891781 4.266670 -29.686787 -5.283096 0.044687 14.353713 0.421981 -29.903511 -3.598146 9.639560 0.000000 0.000000 0.000000 0.000000 0.000000 0.000000 14.719650 4.020015 -14.311847 -32.950171 -9.070361 22.866082 6.563094 4.287110 -2.895251 -8.415436 28.385035 1.524932 0.000000 0.000000 0.000000 0.000000 0.000000 0.000000 6.606787 54.471601 -16.604486 2.192947 -9.394775 -1.457089 -9.297368 30.498461 2.025843 0.000000 0.000000 0.000000 18.451551 58.958847 -20.048946 -8.024609 -14.168070 -10.503897 -47.276930 57.601661 39.969198 0.000000 0.000000 0.000000
13.437616 58.189825 341.689212 7.027273 -38.889806 22.692045 -0.143643 1.048396 -19.913027 -0.124520 1.367205 0.135578 30.690523 14.752085 -15.732476 0.000000 0.000000 0.000000 -12.814855 3.003904 4.307025 22.399480 2.834246 -13.281691 -5.142870 10.172598 2.673390 -19.136968 -5.500053 1.474968 0.000000 0.000000 0.000000 0.000000 0.000000 0.000000 18.586419 7.886560 -15.320444 -34.786325 -16.611314 19.807950 5.979123 8.336467 -2.371190 -10.279831 25.847054 1.876022 0.000000 0.000000 0.000000 0.000000 0.000000 0.000000 9.770066 53.725812 -22.531063 2.247940 -10.459557 -1.673888 -14.170301 45.055829 3.329519 0.000000 0.000000 0.000000 19.997576 54.971818 -25.230041 -7.328596 -12.067824 -9.248093 -38.084830 54.309368 31.707098 0.000000 0.000000 0.000000
12.883113 58.049678 339.666230 7.043850 -37.054565 20.307036 -0.820582 1.226439 -17.448754 0.616068 0.675103 -0.037012 27.977288 14.234092 -14.279760 0.000000 0.000000 0.000000 -17.383889 -11.821747 4.223008 37.047475 23.835936 -25.045568 -7.057179 3.335969 3.090008 -20.666006 -6.571881 1.749467 0.000000 0.000000 0.000000 0.000000 0.000000 0.000000 21.734834 11.272220 -16.055001 -34.949784 -23.988414 16.610291 3.704025 12.530358 -0.915633 -10.518411 23.891339 1.699419 0.000000 0.000000 0.000000 0.000000 0.000000 0.000000 5.253337 47.967189 -18.509547 0.811545 -6.394504 -1.381881 -20.893818 54.589638 8.498586 0.000000 0.000000 0.000000 16.060596 49.911782 -21.655079 -8.935076 -8.651232 -7.990699 -33.901469 53.169095 27.505341 0.000000 0.000000 0.000000
14.157454 60.054866 340.403943 8.943585 -38.161257 17.329780 -1.396618 1.293603 -13.513680 0.225549 1.746392 0.038764 23.581008 14.343639 -12.883923 0.000000 0.000000 0.000000 -18.924288 -19.245852 3.908365 48.589828 36.756079 -36.057441 -6.476245 -1.801015 2.747320 -22.714835 -9.317937 1.418861 0.000000 0.000000 0.000000 0.000000 0.000000 0.000000 24.561869 13.525341 -17.409128 -37.774681 -27.476027 15.265302 3.490223 12.669053 -0.719882 -11.261807 23.818742 1.939709 0.000000 0.000000 0.000000 0.000000 0.000000 0.000000 -4.030308 51.808818 -10.111659 3.218610 -7.813255 -0.867376 -31.540867 59.370895 19.596633 0.000000 0.000000 0.000000 4.188368 55.586507 -11.105188 -4.520307 -11.216488 -7.898792 -27.718859 51.269642 21.108899 0.000000 0.000000 0.000000
